<?xml version="1.0" encoding="UTF-8"?>
<svg xmlns="http://www.w3.org/2000/svg" xmlns:xlink="http://www.w3.org/1999/xlink" viewBox="0 0 30 30" width="30px" height="30px">
<g id="surface62543428">
<path style=" stroke:none;fill-rule:nonzero;fill:rgb(90.588236%,90.588236%,81.960785%);fill-opacity:1;" d="M 25.429688 3.332031 C 25.238281 3.121094 24.96875 3 24.683594 3 L 5.316406 3 C 5.03125 3 4.761719 3.121094 4.570312 3.332031 C 4.382812 3.546875 4.292969 3.828125 4.324219 4.109375 L 6.523438 23.933594 C 6.570312 24.335938 6.855469 24.671875 7.242188 24.785156 L 14.722656 26.921875 C 14.8125 26.945312 14.90625 26.960938 15 26.960938 C 15.089844 26.960938 15.183594 26.945312 15.273438 26.921875 L 22.753906 24.785156 C 23.144531 24.671875 23.429688 24.335938 23.472656 23.933594 L 25.675781 4.109375 C 25.707031 3.828125 25.617188 3.546875 25.429688 3.332031 Z M 20.515625 13.074219 L 20.070312 20.359375 L 15.03125 22.007812 L 9.992188 20.359375 L 9.804688 16.875 L 12.351562 16.875 L 12.417969 18.460938 L 15.03125 19.347656 L 17.648438 18.460938 L 17.839844 15.609375 L 12.226562 15.609375 L 12.097656 13.074219 L 17.964844 13.074219 L 18.15625 10.539062 L 9.355469 10.539062 L 9.164062 8.007812 L 20.835938 8.007812 Z M 20.515625 13.074219 "/>
</g>
</svg>
