<svg xmlns="http://www.w3.org/2000/svg" xmlns:xlink="http://www.w3.org/1999/xlink" id="Capa_1" x="0px" y="0px" viewBox="0 0 404 121.8" style="enable-background:new 0 0 404 121.8;" xml:space="preserve">
<style type="text/css">
	.st0{fill:url(#SVGID_1_);}
	.st1{fill:#FFFFFF;}
	.st2{fill:url(#SVGID_2_);}
	.st3{fill:#909090;}
</style>
<path d="M62.1,113.8c0.3,0.8,0.5,1.4,0.5,1.4s0.1-0.6,0.5-1.4c-0.2,0-0.3,0.1-0.5,0.1C62.4,113.9,62.3,113.9,62.1,113.8z"></path>
<path d="M60.9,112.2c0,0.8,0.5,1.4,1.2,1.6c-0.3-0.7-0.7-1.5-1.2-2.3V112.2z"></path>
<path d="M64.3,112.2v-0.7c-0.5,0.8-0.9,1.6-1.2,2.3C63.8,113.6,64.3,113,64.3,112.2z"></path>
<path d="M62.6,111c-0.5-0.7-1-1.5-1.7-2.2v2.7c0.5,0.8,0.9,1.6,1.2,2.3c0.2,0,0.3,0.1,0.5,0.1s0.3,0,0.5-0.1  c0.3-0.7,0.7-1.5,1.2-2.3v-2.7C63.6,109.5,63.1,110.3,62.6,111z"></path>
<linearGradient id="SVGID_1_" gradientUnits="userSpaceOnUse" x1="21.1471" y1="38.65" x2="60.903" y2="38.65" gradientTransform="matrix(1 0 0 -1 0 124)">
	<stop offset="1.612103e-03" style="stop-color:#C51A1B"></stop>
	<stop offset="1" style="stop-color:#E40138"></stop>
</linearGradient>
<path class="st0" d="M21.1,61.8v37.9c0,3.5,2.8,6.3,6.3,6.3H54c3,0,5.3,1.3,6.9,2.9V61.8H21.1z"></path>
<path class="st1" d="M64.3,108.9c1.6-1.7,3.9-2.9,6.9-2.9h26.6c3.5,0,6.3-2.8,6.3-6.3V61.8H64.3V108.9z"></path>
<linearGradient id="SVGID_2_" gradientUnits="userSpaceOnUse" x1="88.7" y1="65.6" x2="88.7" y2="109.9398" gradientTransform="matrix(1 0 0 -1 0 124)">
	<stop offset="1.612103e-03" style="stop-color:#C51A1B"></stop>
	<stop offset="1" style="stop-color:#E40138"></stop>
</linearGradient>
<path class="st2" d="M104.1,58.4V29.8c0-4.1,2.4-8.5,9-9.8c-1.4-1.1-2.5-2.2-3.5-3.1c-1.6-1.5-3.1-2.9-3.8-2.9H64.3v44.3h39.8V58.4z  "></path>
<path class="st1" d="M60.9,14H19.4c-0.7,0-2.2,1.4-3.8,2.9c-1,0.9-2.1,2-3.5,3.1c6.5,1.3,9,5.7,9,9.8v28.6h39.8  C60.9,58.4,60.9,14,60.9,14z"></path>
<path d="M118.4,19.9c-2.8-2.1-4.9-4-6.6-5.5c-2.5-2.3-4.1-3.8-6.1-3.8H62.8c-0.1,0-0.1,0-0.2,0c-0.1,0-0.1,0-0.2,0h-43  c-2,0-3.6,1.5-6.1,3.8c-1.7,1.5-3.7,3.4-6.6,5.5c-0.6,0.4-0.8,1.2-0.6,1.9c0.3,0.7,1,1.2,1.7,1.2c9,0,9.9,4.8,9.9,6.8v69.9  c0,5.3,4.4,9.7,9.7,9.7H54c2.2,0,4,1,5.4,3c1.1,1.6,1.6,3.3,1.6,3.3c0.2,0.8,0.9,1.3,1.6,1.3l0,0c0.8,0,1.5-0.5,1.6-1.3  c0,0,0.4-1.7,1.6-3.3c1.4-2,3.2-3,5.4-3h26.6c5.3,0,9.7-4.4,9.7-9.7V29.8c0-2,1-6.8,9.9-6.8c0.7,0,1.4-0.5,1.6-1.2  C119.2,21.1,119,20.3,118.4,19.9z M12.2,20c1.4-1.1,2.5-2.2,3.5-3.1c1.6-1.5,3.1-2.9,3.8-2.9H61v44.3H21.1V29.8  C21.1,25.7,18.7,21.3,12.2,20z M64.3,112.2c0,0.8-0.5,1.4-1.2,1.6c-0.3,0.8-0.5,1.4-0.5,1.4s-0.1-0.6-0.5-1.4  c-0.7-0.2-1.2-0.9-1.2-1.6v-0.7v-2.7c-1.6-1.7-3.9-2.9-6.9-2.9H27.4c-3.5,0-6.3-2.8-6.3-6.3V61.8h39.8v47.1c0.7,0.7,1.2,1.4,1.7,2.2  c0.5-0.7,1-1.5,1.7-2.2V61.8h39.8v37.9c0,3.5-2.8,6.3-6.3,6.3H71.2c-3,0-5.3,1.3-6.9,2.9v2.7C64.3,111.6,64.3,112.2,64.3,112.2z   M104.1,29.8v28.6H64.3V14h41.5c0.7,0,2.2,1.4,3.8,2.9c1,0.9,2.1,2,3.5,3.1C106.5,21.3,104.1,25.7,104.1,29.8z"></path>
<path class="st3" d="M73.8,93.6v-1.3l3,0.1V73.5l-3,0.1v-1.4h10.3v1.4l-3-0.1v7.8h3.6l6.3-7.8l-4,0.1v-1.4h9.1v1.4l-3.2-0.1  l-6.2,7.6l8,11.4l2.1-0.1v1.3h-10v-1.3l2.7,0.1l-6.7-9.7h-1.6v9.7l3-0.1v1.3H73.8V93.6z"></path>
<g>
	<path class="st3" d="M40.4,48.2c6.5,0,10.9-2.4,10.9-11.7c0-9.1-4.3-11.4-10.7-11.4c-6.5,0-10.8,2.4-10.8,11.7   C29.8,45.9,34,48.2,40.4,48.2z M40.4,26.4c3.9,0,6.2,2,6.2,10.3c0,8-2.3,10.1-6,10.1c-3.9,0-6.2-2.1-6.2-10.3   C34.4,28.5,36.7,26.4,40.4,26.4z"></path>
	<path d="M40,47.7c6.5,0,10.9-2.4,10.9-11.7c0-9.1-4.3-11.4-10.7-11.4c-6.5,0-10.8,2.4-10.8,11.7C29.3,45.4,33.6,47.7,40,47.7z    M40,26c3.9,0,6.2,2,6.2,10.3c0,8-2.3,10.1-6,10.1c-3.9,0-6.2-2.1-6.2-10.3C34,28,36.2,26,40,26z"></path>
</g>
<path d="M73.4,93.2v-1.3l3,0.1V73.1l-3,0.1v-1.4h10.3v1.4l-3-0.1v7.8h3.6l6.3-7.8l-4,0.1v-1.4h9.1v1.4l-3.2-0.1l-6.2,7.6l8,11.4  l2.1-0.1v1.3h-10V92H89l-6.7-9.7h-1.6V92l3-0.1v1.3C83.7,93.2,73.4,93.2,73.4,93.2z"></path>
<g>
	<path class="st1" d="M151.8,83.9c-0.9,1.9-2.3,3.3-4.1,4.3s-4,1.5-6.5,1.5s-4.7-0.5-6.5-1.5s-3.2-2.5-4.1-4.3   c-0.9-1.9-1.4-4.1-1.4-6.6v-3.2c0-2.6,0.5-4.8,1.4-6.7c0.9-1.9,2.3-3.3,4.1-4.3c1.8-1,4-1.5,6.5-1.5c2.6,0,4.7,0.5,6.5,1.5   c1.8,1,3.2,2.5,4.1,4.3c0.9,1.9,1.4,4.1,1.4,6.6v3.2C153.2,79.8,152.7,82,151.8,83.9z M145.9,70.1c-0.5-1.1-1.1-1.8-1.9-2.4   c-0.8-0.5-1.7-0.8-2.8-0.8s-2,0.3-2.8,0.8s-1.4,1.3-1.9,2.4s-0.7,2.4-0.7,3.9v3.3c0,1.6,0.2,2.9,0.7,3.9s1.1,1.9,1.9,2.4   s1.8,0.8,2.8,0.8c1.1,0,2-0.3,2.8-0.8s1.4-1.3,1.9-2.4s0.7-2.4,0.7-3.9V74C146.5,72.5,146.3,71.2,145.9,70.1z"></path>
	<path class="st1" d="M162.9,89.2V67.5h-7.4v-5.3h21.3v5.3h-7.4v21.8h-6.5V89.2z"></path>
	<path class="st1" d="M185.9,89.2V67.5h-7.4v-5.3h21.3v5.3h-7.4v21.8h-6.5V89.2z"></path>
	<path class="st1" d="M224.8,83.9c-0.9,1.9-2.3,3.3-4.1,4.3s-4,1.5-6.5,1.5s-4.7-0.5-6.5-1.5s-3.2-2.5-4.1-4.3   c-0.9-1.9-1.4-4.1-1.4-6.6v-3.2c0-2.6,0.5-4.8,1.4-6.7c0.9-1.9,2.3-3.3,4.1-4.3c1.8-1,4-1.5,6.5-1.5c2.6,0,4.7,0.5,6.5,1.5   c1.8,1,3.2,2.5,4.1,4.3c0.9,1.9,1.4,4.1,1.4,6.6v3.2C226.3,79.8,225.8,82,224.8,83.9z M218.9,70.1c-0.5-1.1-1.1-1.8-1.9-2.4   c-0.8-0.5-1.7-0.8-2.8-0.8s-2,0.3-2.8,0.8s-1.4,1.3-1.9,2.4s-0.7,2.4-0.7,3.9v3.3c0,1.6,0.2,2.9,0.7,3.9s1.1,1.9,1.9,2.4   c0.8,0.5,1.8,0.8,2.8,0.8c1.1,0,2-0.3,2.8-0.8s1.4-1.3,1.9-2.4s0.7-2.4,0.7-3.9V74C219.6,72.5,219.4,71.2,218.9,70.1z"></path>
	<path class="st1" d="M254.1,73.9l9.8,15.3h-7.7l-6.8-11L247,81v8.2h-6.5V62.1h6.5v11.5h0.3l9.3-11.5h7L254.1,73.9z"></path>
	<path class="st1" d="M284.2,63.2c1.5,0.7,2.6,1.8,3.4,3.1s1.2,2.9,1.2,4.7c0,1.4-0.3,2.6-0.8,3.6s-1.1,1.9-1.9,2.6   c-0.7,0.7-1.5,1.1-2.2,1.4l5.4,10.6H282l-4.6-9.7h-3.8v9.7h-6.4V62.1h11.5C280.9,62.1,282.7,62.5,284.2,63.2z M277.7,74.9   c1.3,0,2.3-0.3,3.1-1s1.2-1.6,1.2-2.9s-0.4-2.3-1.2-3c-0.8-0.7-1.8-1-3-1h-4.1v7.9H277.7z"></path>
	<path class="st1" d="M291.4,89.2l8.7-27.1h7.9l8.7,27.1h-6.9l-1.8-6.3h-8.4l-1.8,6.3H291.4z M303.8,68l-2.9,10.3h6L304.1,68H303.8z   "></path>
	<path class="st1" d="M335.1,83c0.9-0.9,1.3-2.2,1.3-3.9v-17h6.5v17.7c0,2-0.5,3.7-1.4,5.2s-2.2,2.6-3.9,3.4c-1.7,0.8-3.7,1.2-6,1.2   s-4.3-0.4-6-1.2c-1.7-0.8-3-2-3.9-3.4c-0.9-1.5-1.4-3.2-1.4-5.2V62.1h6.5v17c0,1.7,0.4,3,1.3,3.9s2.1,1.3,3.5,1.3   S334.2,83.8,335.1,83z"></path>
	<path class="st1" d="M353.8,81.5c0.1,0.4,0.2,0.9,0.4,1.3s0.6,0.7,1,1s0.9,0.5,1.5,0.7s1.2,0.3,2,0.3c1,0,1.9-0.1,2.5-0.4   c0.7-0.3,1.1-0.6,1.5-1.1s0.5-1,0.5-1.6c0-0.8-0.3-1.5-1-1.9c-0.7-0.5-1.7-0.8-3-1.1l-3.8-0.8c-1.4-0.3-2.7-0.8-3.8-1.4   c-1.1-0.6-1.9-1.5-2.5-2.5s-0.9-2.3-0.9-3.8c0-1.7,0.4-3.2,1.3-4.5s2.1-2.2,3.7-2.9s3.4-1,5.5-1c2.3,0,4.2,0.4,5.7,1.1   c1.5,0.7,2.7,1.7,3.5,2.9c0.8,1.2,1.2,2.5,1.3,3.9h-6c-0.1-0.5-0.3-1-0.6-1.5s-0.8-0.8-1.5-1.1c-0.6-0.3-1.4-0.4-2.3-0.4   c-1.3,0-2.3,0.3-3,0.9s-1,1.3-1,2.2c0,0.7,0.3,1.3,1,1.8c0.6,0.5,1.5,0.8,2.7,1l3.9,0.8c1.4,0.3,2.6,0.7,3.8,1.3   c1.1,0.6,2,1.4,2.7,2.5c0.7,1,1,2.4,1,4c0,1.7-0.4,3.2-1.3,4.6s-2.1,2.3-3.7,3.1c-1.6,0.7-3.7,1.1-6.1,1.1c-1.9,0-3.5-0.2-4.9-0.7   s-2.5-1.1-3.4-1.8c-0.9-0.8-1.5-1.7-1.9-2.6c-0.4-1-0.7-2-0.7-3.1h5.9V81.5z"></path>
	<path class="st1" d="M392.8,89.2h-18.2V62.1h18.2v5.2h-11.7v5.9h11V78h-11v6h11.7V89.2z"></path>
</g>
<g>
	<path class="st1" d="M141.4,52.9h-11.6V33.3h11.6v1.9h-9.5v6.7h8.9v1.9h-8.9V51h9.5V52.9z"></path>
	<path class="st1" d="M146.1,39.5c0.5-0.7,1.2-1.1,2-1.5s1.7-0.5,2.7-0.5c1.1,0,2,0.2,2.8,0.6c0.8,0.4,1.4,0.9,1.8,1.5   c0.4,0.6,0.6,1.3,0.6,2.1h-2c0-0.4-0.2-0.7-0.4-1.1c-0.2-0.4-0.6-0.7-1.1-0.9s-1.1-0.4-1.9-0.4c-0.9,0-1.7,0.2-2.4,0.6   c-0.6,0.4-0.9,1-0.9,1.8c0,0.5,0.1,0.9,0.3,1.1c0.2,0.3,0.5,0.5,0.9,0.7s0.8,0.3,1.2,0.4c0.4,0.1,0.9,0.2,1.4,0.3   c0.9,0.2,1.8,0.4,2.6,0.7s1.4,0.7,1.9,1.2s0.7,1.3,0.7,2.3s-0.3,1.8-0.8,2.5s-1.2,1.2-2.1,1.5c-0.9,0.4-1.9,0.5-3,0.5   s-2.1-0.2-2.9-0.5c-0.8-0.3-1.5-0.8-1.9-1.4c-0.5-0.6-0.7-1.3-0.7-2.2h2c0.1,0.5,0.2,0.9,0.5,1.2c0.3,0.4,0.6,0.6,1.1,0.8   s1.1,0.3,1.9,0.3c0.8,0,1.5-0.1,2.1-0.3c0.5-0.2,0.9-0.5,1.2-0.9s0.4-0.8,0.4-1.3c0-0.6-0.2-1.1-0.5-1.4c-0.4-0.3-0.8-0.6-1.4-0.7   c-0.6-0.2-1.2-0.3-1.9-0.5c-0.9-0.2-1.8-0.5-2.6-0.7c-0.8-0.3-1.4-0.7-1.8-1.2c-0.5-0.5-0.7-1.3-0.7-2.2   C145.4,41,145.6,40.2,146.1,39.5z"></path>
	<path class="st1" d="M160.1,44c0-1.3,0.2-2.5,0.7-3.4c0.5-1,1.2-1.7,2.1-2.2c0.9-0.5,2-0.8,3.2-0.8s2.3,0.2,3.1,0.7   c0.8,0.4,1.4,1,1.9,1.7c0.4,0.7,0.6,1.4,0.7,2.1h-2.1c-0.1-0.3-0.2-0.7-0.4-1.1c-0.2-0.4-0.6-0.7-1.1-1s-1.2-0.4-2-0.4   c-1.3,0-2.3,0.4-3,1.2s-1,2-1,3.4v2.5c0,1.4,0.4,2.5,1.1,3.3s1.7,1.2,3,1.2c0.8,0,1.5-0.1,2-0.3s0.9-0.5,1.1-0.9   c0.3-0.4,0.4-0.7,0.5-1.1h2.1c0,0.7-0.2,1.3-0.7,2s-1,1.2-1.9,1.6c-0.8,0.4-1.9,0.6-3.2,0.6c-1.2,0-2.3-0.3-3.2-0.8   s-1.6-1.3-2.1-2.2c-0.5-1-0.7-2.1-0.7-3.4V44H160.1z"></path>
	<path class="st1" d="M188,52.9h-2v-2.6h-0.1c-0.2,0.4-0.4,0.8-0.8,1.3c-0.4,0.4-0.9,0.8-1.5,1.1s-1.4,0.4-2.3,0.4   c-1,0-1.9-0.2-2.7-0.5s-1.4-0.8-1.8-1.5c-0.4-0.7-0.7-1.6-0.7-2.8V37.8h2.1v9.9c0,0.9,0.2,1.5,0.5,2.1c0.3,0.5,0.7,0.9,1.3,1.1   c0.5,0.2,1.1,0.3,1.8,0.3c0.8,0,1.6-0.2,2.2-0.5c0.6-0.4,1.1-0.8,1.5-1.5s0.5-1.2,0.5-1.9v-9.5h2.1v15.1H188z"></path>
	<path class="st1" d="M195.5,52.3c-0.9-0.5-1.7-1.3-2.1-2.3c-0.5-1-0.7-2.1-0.7-3.5v-2.3c0-1.4,0.3-2.5,0.8-3.5s1.2-1.8,2.1-2.3   c0.9-0.5,2-0.8,3.1-0.8c1.2,0,2.2,0.3,3.1,0.8c0.9,0.5,1.6,1.3,2.1,2.3s0.8,2.2,0.8,3.5v1.7h-10.1v0.8c0,1.3,0.4,2.4,1.1,3.3   s1.7,1.3,3.1,1.3c0.7,0,1.2-0.1,1.7-0.3s0.9-0.4,1.2-0.7s0.5-0.6,0.6-0.9h2.2c0,0.4-0.2,0.8-0.5,1.2s-0.6,0.9-1.1,1.3   c-0.5,0.4-1,0.7-1.7,1s-1.5,0.4-2.4,0.4C197.6,53.1,196.4,52.9,195.5,52.3z M202.7,44.3L202.7,44.3v-0.2c0-0.9-0.2-1.7-0.5-2.4   s-0.8-1.2-1.4-1.6c-0.6-0.4-1.3-0.6-2.1-0.6s-1.5,0.2-2.1,0.6c-0.6,0.4-1.1,0.9-1.4,1.6c-0.3,0.7-0.5,1.5-0.5,2.4v0.1v0.1H202.7z"></path>
	<path class="st1" d="M209.4,32.2h2.1v20.7h-2.1V32.2z"></path>
	<path class="st1" d="M217.3,51.9c-0.9-0.8-1.4-2-1.4-3.3s0.4-2.4,1.3-3.2c0.9-0.8,2.2-1.2,3.9-1.2h4.1v-1.6c0-1.1-0.3-1.8-0.9-2.3   s-1.5-0.7-2.5-0.7c-0.7,0-1.3,0.1-1.7,0.3s-0.8,0.4-1,0.7s-0.4,0.6-0.5,1h-2c0-0.6,0.2-1.1,0.5-1.6s0.6-0.9,1.1-1.2s1-0.6,1.7-0.7   c0.6-0.2,1.4-0.2,2.2-0.2c1,0,1.9,0.2,2.7,0.5s1.5,0.8,2,1.6c0.5,0.7,0.7,1.7,0.7,2.8v10.4h-2v-2.1h-0.1c-0.2,0.4-0.6,0.8-1,1.1   s-0.9,0.6-1.5,0.9c-0.6,0.2-1.2,0.3-2,0.3C219.4,53.1,218.3,52.7,217.3,51.9z M223.4,50.8c0.6-0.3,1.1-0.7,1.4-1.3   c0.3-0.5,0.5-1.1,0.5-1.8v-1.8h-4.1c-1.1,0-1.9,0.2-2.4,0.7s-0.7,1.1-0.7,1.8c0,0.9,0.3,1.7,1,2.1s1.4,0.7,2.3,0.7   C222.1,51.3,222.8,51.1,223.4,50.8z"></path>
	<path class="st1" d="M243.5,52.9V35.2h-6.1v-1.9h14.3v1.9h-6.1v17.7H243.5z"></path>
	<path class="st1" d="M255.5,52.3c-0.9-0.5-1.7-1.3-2.1-2.3c-0.5-1-0.7-2.1-0.7-3.5v-2.3c0-1.4,0.3-2.5,0.8-3.5s1.2-1.8,2.1-2.3   c0.9-0.5,2-0.8,3.1-0.8c1.2,0,2.2,0.3,3.1,0.8s1.6,1.3,2.1,2.3s0.8,2.2,0.8,3.5v1.7h-10.1v0.8c0,1.3,0.4,2.4,1.1,3.3   c0.7,0.9,1.7,1.3,3.1,1.3c0.7,0,1.2-0.1,1.7-0.3s0.9-0.4,1.2-0.7s0.5-0.6,0.6-0.9h2.2c0,0.4-0.2,0.8-0.5,1.2s-0.6,0.9-1.1,1.3   c-0.5,0.4-1,0.7-1.7,1c-0.7,0.2-1.5,0.4-2.4,0.4C257.5,53.1,256.4,52.9,255.5,52.3z M262.6,44.3L262.6,44.3v-0.2   c0-0.9-0.2-1.7-0.5-2.4s-0.8-1.2-1.4-1.6c-0.6-0.4-1.3-0.6-2.1-0.6c-0.8,0-1.5,0.2-2.1,0.6c-0.6,0.4-1.1,0.9-1.4,1.6   c-0.3,0.7-0.5,1.5-0.5,2.4v0.1v0.1H262.6z M260.9,30.3h2.1l-4,5h-1.6L260.9,30.3z"></path>
	<path class="st1" d="M268.5,44c0-1.3,0.2-2.5,0.7-3.4s1.2-1.7,2.1-2.2s2-0.8,3.2-0.8s2.3,0.2,3.1,0.7c0.8,0.4,1.4,1,1.9,1.7   c0.4,0.7,0.6,1.4,0.7,2.1h-2.1c-0.1-0.3-0.2-0.7-0.4-1.1c-0.2-0.4-0.6-0.7-1.1-1s-1.2-0.4-2-0.4c-1.3,0-2.3,0.4-3,1.2s-1,2-1,3.4   v2.5c0,1.4,0.4,2.5,1.1,3.3s1.7,1.2,3,1.2c0.8,0,1.5-0.1,2-0.3s0.9-0.5,1.1-0.9s0.4-0.7,0.5-1.1h2.1c0,0.7-0.2,1.3-0.7,2   c-0.4,0.7-1,1.2-1.9,1.6c-0.8,0.4-1.9,0.6-3.2,0.6c-1.2,0-2.3-0.3-3.2-0.8c-0.9-0.5-1.6-1.3-2.1-2.2s-0.7-2.1-0.7-3.4V44H268.5z"></path>
	<path class="st1" d="M284.6,37.8h2.1v2.8h0.1c0.1-0.4,0.4-0.9,0.7-1.3c0.3-0.5,0.8-0.9,1.4-1.2s1.5-0.5,2.5-0.5   c1.5,0,2.8,0.4,3.7,1.2c0.9,0.8,1.4,2.1,1.4,3.8v10.3h-2.1v-9.6c0-0.8-0.1-1.5-0.4-2.1s-0.7-1-1.2-1.3s-1.2-0.5-1.9-0.5   c-1,0-1.8,0.2-2.4,0.7s-1.1,1.1-1.4,1.8c-0.3,0.8-0.5,1.6-0.5,2.5v8.5h-2.1L284.6,37.8L284.6,37.8z"></path>
	<path class="st1" d="M302.1,32c0.3-0.3,0.7-0.5,1.1-0.5c0.5,0,0.9,0.2,1.2,0.5s0.5,0.7,0.5,1.1s-0.2,0.8-0.5,1.1s-0.7,0.5-1.2,0.5   c-0.4,0-0.8-0.2-1.1-0.5s-0.5-0.7-0.5-1.1S301.8,32.4,302.1,32z M302.2,37.8h2.1v15h-2.1V37.8z"></path>
	<path class="st1" d="M309.2,44c0-1.3,0.2-2.5,0.7-3.4s1.2-1.7,2.1-2.2s2-0.8,3.2-0.8s2.3,0.2,3.1,0.7c0.8,0.4,1.4,1,1.9,1.7   c0.4,0.7,0.6,1.4,0.7,2.1h-2.1c-0.1-0.3-0.2-0.7-0.4-1.1c-0.2-0.4-0.6-0.7-1.1-1s-1.2-0.4-2-0.4c-1.3,0-2.3,0.4-3,1.2s-1,2-1,3.4   v2.5c0,1.4,0.4,2.5,1.1,3.3s1.7,1.2,3,1.2c0.8,0,1.5-0.1,2-0.3s0.9-0.5,1.1-0.9s0.4-0.7,0.5-1.1h2.1c0,0.7-0.2,1.3-0.7,2   c-0.4,0.7-1,1.2-1.9,1.6c-0.8,0.4-1.9,0.6-3.2,0.6c-1.2,0-2.3-0.3-3.2-0.8c-0.9-0.5-1.6-1.3-2.1-2.2s-0.7-2.1-0.7-3.4V44H309.2z"></path>
	<path class="st1" d="M325.9,51.9c-0.9-0.8-1.4-2-1.4-3.3s0.4-2.4,1.3-3.2s2.2-1.2,3.9-1.2h4.1v-1.6c0-1.1-0.3-1.8-0.9-2.3   s-1.5-0.7-2.5-0.7c-0.7,0-1.3,0.1-1.7,0.3c-0.4,0.2-0.8,0.4-1,0.7s-0.4,0.6-0.5,1h-2c0-0.6,0.2-1.1,0.5-1.6s0.6-0.9,1.1-1.2   s1-0.6,1.7-0.7c0.6-0.2,1.4-0.2,2.2-0.2c1,0,1.9,0.2,2.7,0.5c0.8,0.3,1.5,0.8,2,1.6c0.5,0.7,0.7,1.7,0.7,2.8v10.4h-2v-2.1H334   c-0.2,0.4-0.6,0.8-1,1.1s-0.9,0.6-1.5,0.9c-0.6,0.2-1.2,0.3-2,0.3C328,53.1,326.8,52.7,325.9,51.9z M331.9,50.8   c0.6-0.3,1.1-0.7,1.4-1.3c0.3-0.5,0.5-1.1,0.5-1.8v-1.8h-4.1c-1.1,0-1.9,0.2-2.4,0.7s-0.7,1.1-0.7,1.8c0,0.9,0.3,1.7,1,2.1   s1.4,0.7,2.3,0.7C330.7,51.3,331.3,51.1,331.9,50.8z"></path>
</g>
</svg>